<mxfile host="app.diagrams.net" modified="2022-11-17T06:27:04.545Z" agent="5.0 (Macintosh; Intel Mac OS X 10_15_7) AppleWebKit/537.36 (KHTML, like Gecko) Chrome/107.0.0.0 Safari/537.36" etag="aGJbOZbmpfL6DZuCxnyR" version="20.5.3" type="github">
  <diagram name="Page-1" id="74e2e168-ea6b-b213-b513-2b3c1d86103e">
    <mxGraphModel dx="1646" dy="1134" grid="0" gridSize="10" guides="1" tooltips="1" connect="1" arrows="1" fold="1" page="1" pageScale="1" pageWidth="1920" pageHeight="1200" background="none" math="0" shadow="0">
      <root>
        <mxCell id="0" />
        <mxCell id="1" parent="0" />
        <mxCell id="TtepNEDzew5KfKsV2uqK-92" value="" style="rounded=0;whiteSpace=wrap;html=1;fontSize=16;dashed=1;fillColor=#dae8fc;strokeColor=#6c8ebf;gradientColor=#7ea6e0;" vertex="1" parent="1">
          <mxGeometry x="3262.5" y="1288" width="366" height="1037" as="geometry" />
        </mxCell>
        <mxCell id="TtepNEDzew5KfKsV2uqK-91" value="" style="rounded=0;whiteSpace=wrap;html=1;fontSize=16;dashed=1;fillColor=#e6d0de;gradientColor=#d5739d;strokeColor=#996185;" vertex="1" parent="1">
          <mxGeometry x="2896.5" y="1288" width="366" height="1037" as="geometry" />
        </mxCell>
        <mxCell id="TtepNEDzew5KfKsV2uqK-90" value="" style="rounded=0;whiteSpace=wrap;html=1;fontSize=16;dashed=1;fillColor=#d5e8d4;gradientColor=#97d077;strokeColor=#82b366;" vertex="1" parent="1">
          <mxGeometry x="2530.5" y="1287" width="366" height="1039" as="geometry" />
        </mxCell>
        <mxCell id="TtepNEDzew5KfKsV2uqK-89" value="" style="rounded=0;whiteSpace=wrap;html=1;fontSize=16;dashed=1;fillColor=#fff2cc;strokeColor=#d6b656;gradientColor=#ffd966;" vertex="1" parent="1">
          <mxGeometry x="2225" y="1288" width="305.5" height="1039" as="geometry" />
        </mxCell>
        <mxCell id="77e6c97f196da883-1" value="Pool" style="swimlane;html=1;childLayout=stackLayout;startSize=20;rounded=0;shadow=0;labelBackgroundColor=none;strokeWidth=1;fontFamily=Verdana;fontSize=8;align=center;" parent="1" vertex="1">
          <mxGeometry x="70" y="40" width="960" height="750" as="geometry" />
        </mxCell>
        <mxCell id="77e6c97f196da883-2" value="Lane 1" style="swimlane;html=1;startSize=20;" parent="77e6c97f196da883-1" vertex="1">
          <mxGeometry y="20" width="160" height="730" as="geometry" />
        </mxCell>
        <mxCell id="77e6c97f196da883-8" value="" style="rounded=1;whiteSpace=wrap;html=1;shadow=0;labelBackgroundColor=none;strokeWidth=1;fontFamily=Verdana;fontSize=8;align=center;" parent="77e6c97f196da883-2" vertex="1">
          <mxGeometry x="20" y="65" width="100" height="60" as="geometry" />
        </mxCell>
        <mxCell id="77e6c97f196da883-9" value="" style="rounded=1;whiteSpace=wrap;html=1;shadow=0;labelBackgroundColor=none;strokeWidth=1;fontFamily=Verdana;fontSize=8;align=center;" parent="77e6c97f196da883-2" vertex="1">
          <mxGeometry x="20" y="155" width="100" height="60" as="geometry" />
        </mxCell>
        <mxCell id="77e6c97f196da883-10" value="" style="rounded=1;whiteSpace=wrap;html=1;shadow=0;labelBackgroundColor=none;strokeWidth=1;fontFamily=Verdana;fontSize=8;align=center;" parent="77e6c97f196da883-2" vertex="1">
          <mxGeometry x="30" y="560" width="100" height="60" as="geometry" />
        </mxCell>
        <mxCell id="77e6c97f196da883-26" style="edgeStyle=orthogonalEdgeStyle;rounded=1;html=1;labelBackgroundColor=none;startArrow=none;startFill=0;startSize=5;endArrow=classicThin;endFill=1;endSize=5;jettySize=auto;orthogonalLoop=1;strokeWidth=1;fontFamily=Verdana;fontSize=8" parent="77e6c97f196da883-1" source="77e6c97f196da883-8" target="77e6c97f196da883-11" edge="1">
          <mxGeometry relative="1" as="geometry" />
        </mxCell>
        <mxCell id="77e6c97f196da883-27" style="edgeStyle=orthogonalEdgeStyle;rounded=1;html=1;labelBackgroundColor=none;startArrow=none;startFill=0;startSize=5;endArrow=classicThin;endFill=1;endSize=5;jettySize=auto;orthogonalLoop=1;strokeWidth=1;fontFamily=Verdana;fontSize=8" parent="77e6c97f196da883-1" source="77e6c97f196da883-11" target="77e6c97f196da883-9" edge="1">
          <mxGeometry relative="1" as="geometry">
            <Array as="points">
              <mxPoint x="240" y="155" />
              <mxPoint x="70" y="155" />
            </Array>
          </mxGeometry>
        </mxCell>
        <mxCell id="77e6c97f196da883-28" style="edgeStyle=orthogonalEdgeStyle;rounded=1;html=1;labelBackgroundColor=none;startArrow=none;startFill=0;startSize=5;endArrow=classicThin;endFill=1;endSize=5;jettySize=auto;orthogonalLoop=1;strokeWidth=1;fontFamily=Verdana;fontSize=8" parent="77e6c97f196da883-1" source="77e6c97f196da883-9" target="77e6c97f196da883-12" edge="1">
          <mxGeometry relative="1" as="geometry" />
        </mxCell>
        <mxCell id="77e6c97f196da883-30" style="edgeStyle=orthogonalEdgeStyle;rounded=1;html=1;labelBackgroundColor=none;startArrow=none;startFill=0;startSize=5;endArrow=classicThin;endFill=1;endSize=5;jettySize=auto;orthogonalLoop=1;strokeWidth=1;fontFamily=Verdana;fontSize=8" parent="77e6c97f196da883-1" source="77e6c97f196da883-13" target="77e6c97f196da883-9" edge="1">
          <mxGeometry relative="1" as="geometry" />
        </mxCell>
        <mxCell id="77e6c97f196da883-31" style="edgeStyle=orthogonalEdgeStyle;rounded=1;html=1;labelBackgroundColor=none;startArrow=none;startFill=0;startSize=5;endArrow=classicThin;endFill=1;endSize=5;jettySize=auto;orthogonalLoop=1;strokeWidth=1;fontFamily=Verdana;fontSize=8" parent="77e6c97f196da883-1" source="77e6c97f196da883-16" target="77e6c97f196da883-9" edge="1">
          <mxGeometry relative="1" as="geometry" />
        </mxCell>
        <mxCell id="77e6c97f196da883-32" style="edgeStyle=orthogonalEdgeStyle;rounded=1;html=1;labelBackgroundColor=none;startArrow=none;startFill=0;startSize=5;endArrow=classicThin;endFill=1;endSize=5;jettySize=auto;orthogonalLoop=1;strokeWidth=1;fontFamily=Verdana;fontSize=8" parent="77e6c97f196da883-1" source="77e6c97f196da883-20" target="77e6c97f196da883-9" edge="1">
          <mxGeometry relative="1" as="geometry">
            <Array as="points">
              <mxPoint x="20" y="690" />
              <mxPoint x="20" y="370" />
              <mxPoint x="70" y="370" />
            </Array>
          </mxGeometry>
        </mxCell>
        <mxCell id="77e6c97f196da883-33" style="edgeStyle=orthogonalEdgeStyle;rounded=1;html=1;labelBackgroundColor=none;startArrow=none;startFill=0;startSize=5;endArrow=classicThin;endFill=1;endSize=5;jettySize=auto;orthogonalLoop=1;strokeWidth=1;fontFamily=Verdana;fontSize=8" parent="77e6c97f196da883-1" source="77e6c97f196da883-13" target="77e6c97f196da883-15" edge="1">
          <mxGeometry relative="1" as="geometry" />
        </mxCell>
        <mxCell id="77e6c97f196da883-39" style="edgeStyle=orthogonalEdgeStyle;rounded=1;html=1;labelBackgroundColor=none;startArrow=none;startFill=0;startSize=5;endArrow=classicThin;endFill=1;endSize=5;jettySize=auto;orthogonalLoop=1;strokeWidth=1;fontFamily=Verdana;fontSize=8" parent="77e6c97f196da883-1" source="77e6c97f196da883-20" target="77e6c97f196da883-23" edge="1">
          <mxGeometry relative="1" as="geometry" />
        </mxCell>
        <mxCell id="77e6c97f196da883-40" style="edgeStyle=orthogonalEdgeStyle;rounded=1;html=1;labelBackgroundColor=none;startArrow=none;startFill=0;startSize=5;endArrow=classicThin;endFill=1;endSize=5;jettySize=auto;orthogonalLoop=1;strokeWidth=1;fontFamily=Verdana;fontSize=8" parent="77e6c97f196da883-1" source="77e6c97f196da883-23" target="77e6c97f196da883-24" edge="1">
          <mxGeometry relative="1" as="geometry" />
        </mxCell>
        <mxCell id="107ba76e4e335f99-1" style="edgeStyle=orthogonalEdgeStyle;rounded=1;html=1;labelBackgroundColor=none;startArrow=none;startFill=0;startSize=5;endArrow=classicThin;endFill=1;endSize=5;jettySize=auto;orthogonalLoop=1;strokeWidth=1;fontFamily=Verdana;fontSize=8" parent="77e6c97f196da883-1" source="77e6c97f196da883-17" target="77e6c97f196da883-18" edge="1">
          <mxGeometry relative="1" as="geometry" />
        </mxCell>
        <mxCell id="107ba76e4e335f99-2" style="edgeStyle=orthogonalEdgeStyle;rounded=1;html=1;labelBackgroundColor=none;startArrow=none;startFill=0;startSize=5;endArrow=classicThin;endFill=1;endSize=5;jettySize=auto;orthogonalLoop=1;strokeWidth=1;fontFamily=Verdana;fontSize=8" parent="77e6c97f196da883-1" source="77e6c97f196da883-22" target="77e6c97f196da883-14" edge="1">
          <mxGeometry relative="1" as="geometry">
            <Array as="points">
              <mxPoint x="660" y="610" />
              <mxPoint x="660" y="550" />
              <mxPoint x="400" y="550" />
            </Array>
          </mxGeometry>
        </mxCell>
        <mxCell id="107ba76e4e335f99-3" style="edgeStyle=orthogonalEdgeStyle;rounded=1;html=1;labelBackgroundColor=none;startArrow=none;startFill=0;startSize=5;endArrow=classicThin;endFill=1;endSize=5;jettySize=auto;orthogonalLoop=1;strokeColor=#000000;strokeWidth=1;fontFamily=Verdana;fontSize=8;fontColor=#000000;" parent="77e6c97f196da883-1" source="77e6c97f196da883-22" target="77e6c97f196da883-19" edge="1">
          <mxGeometry relative="1" as="geometry" />
        </mxCell>
        <mxCell id="107ba76e4e335f99-4" style="edgeStyle=orthogonalEdgeStyle;rounded=1;html=1;labelBackgroundColor=none;startArrow=none;startFill=0;startSize=5;endArrow=classicThin;endFill=1;endSize=5;jettySize=auto;orthogonalLoop=1;strokeWidth=1;fontFamily=Verdana;fontSize=8" parent="77e6c97f196da883-1" source="77e6c97f196da883-22" target="77e6c97f196da883-10" edge="1">
          <mxGeometry relative="1" as="geometry">
            <Array as="points">
              <mxPoint x="660" y="610" />
              <mxPoint x="660" y="550" />
              <mxPoint x="80" y="550" />
            </Array>
          </mxGeometry>
        </mxCell>
        <mxCell id="107ba76e4e335f99-5" style="edgeStyle=orthogonalEdgeStyle;rounded=1;html=1;labelBackgroundColor=none;startArrow=none;startFill=0;startSize=5;endArrow=classicThin;endFill=1;endSize=5;jettySize=auto;orthogonalLoop=1;strokeWidth=1;fontFamily=Verdana;fontSize=8" parent="77e6c97f196da883-1" source="77e6c97f196da883-10" target="77e6c97f196da883-19" edge="1">
          <mxGeometry relative="1" as="geometry">
            <Array as="points">
              <mxPoint x="80" y="650" />
              <mxPoint x="490" y="650" />
              <mxPoint x="490" y="610" />
            </Array>
          </mxGeometry>
        </mxCell>
        <mxCell id="107ba76e4e335f99-6" style="edgeStyle=orthogonalEdgeStyle;rounded=1;html=1;labelBackgroundColor=none;startArrow=none;startFill=0;startSize=5;endArrow=classicThin;endFill=1;endSize=5;jettySize=auto;orthogonalLoop=1;strokeWidth=1;fontFamily=Verdana;fontSize=8" parent="77e6c97f196da883-1" source="77e6c97f196da883-14" target="77e6c97f196da883-19" edge="1">
          <mxGeometry relative="1" as="geometry" />
        </mxCell>
        <mxCell id="77e6c97f196da883-3" value="Lane 2" style="swimlane;html=1;startSize=20;" parent="77e6c97f196da883-1" vertex="1">
          <mxGeometry x="160" y="20" width="160" height="730" as="geometry" />
        </mxCell>
        <mxCell id="77e6c97f196da883-11" value="" style="rounded=1;whiteSpace=wrap;html=1;shadow=0;labelBackgroundColor=none;strokeWidth=1;fontFamily=Verdana;fontSize=8;align=center;" parent="77e6c97f196da883-3" vertex="1">
          <mxGeometry x="30" y="65" width="100" height="60" as="geometry" />
        </mxCell>
        <mxCell id="77e6c97f196da883-4" value="Lane 3" style="swimlane;html=1;startSize=20;" parent="77e6c97f196da883-1" vertex="1">
          <mxGeometry x="320" y="20" width="160" height="730" as="geometry" />
        </mxCell>
        <mxCell id="77e6c97f196da883-12" value="" style="rounded=1;whiteSpace=wrap;html=1;shadow=0;labelBackgroundColor=none;strokeWidth=1;fontFamily=Verdana;fontSize=8;align=center;" parent="77e6c97f196da883-4" vertex="1">
          <mxGeometry x="30" y="155" width="100" height="60" as="geometry" />
        </mxCell>
        <mxCell id="77e6c97f196da883-13" value="" style="rhombus;whiteSpace=wrap;html=1;rounded=0;shadow=0;labelBackgroundColor=none;strokeWidth=1;fontFamily=Verdana;fontSize=8;align=center;" parent="77e6c97f196da883-4" vertex="1">
          <mxGeometry x="40" y="240" width="80" height="60" as="geometry" />
        </mxCell>
        <mxCell id="77e6c97f196da883-14" value="" style="rounded=1;whiteSpace=wrap;html=1;shadow=0;labelBackgroundColor=none;strokeWidth=1;fontFamily=Verdana;fontSize=8;align=center;" parent="77e6c97f196da883-4" vertex="1">
          <mxGeometry x="30" y="560" width="100" height="60" as="geometry" />
        </mxCell>
        <mxCell id="77e6c97f196da883-29" style="edgeStyle=orthogonalEdgeStyle;rounded=1;html=1;labelBackgroundColor=none;startArrow=none;startFill=0;startSize=5;endArrow=classicThin;endFill=1;endSize=5;jettySize=auto;orthogonalLoop=1;strokeWidth=1;fontFamily=Verdana;fontSize=8" parent="77e6c97f196da883-4" source="77e6c97f196da883-12" target="77e6c97f196da883-13" edge="1">
          <mxGeometry relative="1" as="geometry" />
        </mxCell>
        <mxCell id="77e6c97f196da883-5" value="Lane 4" style="swimlane;html=1;startSize=20;" parent="77e6c97f196da883-1" vertex="1">
          <mxGeometry x="480" y="20" width="160" height="730" as="geometry" />
        </mxCell>
        <mxCell id="77e6c97f196da883-15" value="" style="rounded=1;whiteSpace=wrap;html=1;shadow=0;labelBackgroundColor=none;strokeWidth=1;fontFamily=Verdana;fontSize=8;align=center;" parent="77e6c97f196da883-5" vertex="1">
          <mxGeometry x="30" y="240" width="100" height="60" as="geometry" />
        </mxCell>
        <mxCell id="77e6c97f196da883-16" value="" style="rhombus;whiteSpace=wrap;html=1;rounded=0;shadow=0;labelBackgroundColor=none;strokeWidth=1;fontFamily=Verdana;fontSize=8;align=center;" parent="77e6c97f196da883-5" vertex="1">
          <mxGeometry x="40" y="320" width="80" height="60" as="geometry" />
        </mxCell>
        <mxCell id="77e6c97f196da883-17" value="" style="rounded=1;whiteSpace=wrap;html=1;shadow=0;labelBackgroundColor=none;strokeWidth=1;fontFamily=Verdana;fontSize=8;align=center;" parent="77e6c97f196da883-5" vertex="1">
          <mxGeometry x="30" y="400" width="100" height="60" as="geometry" />
        </mxCell>
        <mxCell id="77e6c97f196da883-19" value="" style="rounded=1;whiteSpace=wrap;html=1;shadow=0;labelBackgroundColor=none;strokeWidth=1;fontFamily=Verdana;fontSize=8;align=center;" parent="77e6c97f196da883-5" vertex="1">
          <mxGeometry x="30" y="560" width="100" height="60" as="geometry" />
        </mxCell>
        <mxCell id="77e6c97f196da883-20" value="" style="rhombus;whiteSpace=wrap;html=1;rounded=0;shadow=0;labelBackgroundColor=none;strokeWidth=1;fontFamily=Verdana;fontSize=8;align=center;" parent="77e6c97f196da883-5" vertex="1">
          <mxGeometry x="40" y="640" width="80" height="60" as="geometry" />
        </mxCell>
        <mxCell id="77e6c97f196da883-34" style="edgeStyle=orthogonalEdgeStyle;rounded=1;html=1;labelBackgroundColor=none;startArrow=none;startFill=0;startSize=5;endArrow=classicThin;endFill=1;endSize=5;jettySize=auto;orthogonalLoop=1;strokeColor=#000000;strokeWidth=1;fontFamily=Verdana;fontSize=8;fontColor=#000000;" parent="77e6c97f196da883-5" source="77e6c97f196da883-15" target="77e6c97f196da883-16" edge="1">
          <mxGeometry relative="1" as="geometry" />
        </mxCell>
        <mxCell id="77e6c97f196da883-35" style="edgeStyle=orthogonalEdgeStyle;rounded=1;html=1;labelBackgroundColor=none;startArrow=none;startFill=0;startSize=5;endArrow=classicThin;endFill=1;endSize=5;jettySize=auto;orthogonalLoop=1;strokeWidth=1;fontFamily=Verdana;fontSize=8" parent="77e6c97f196da883-5" source="77e6c97f196da883-16" target="77e6c97f196da883-17" edge="1">
          <mxGeometry relative="1" as="geometry" />
        </mxCell>
        <mxCell id="77e6c97f196da883-36" style="edgeStyle=orthogonalEdgeStyle;rounded=1;html=1;labelBackgroundColor=none;startArrow=none;startFill=0;startSize=5;endArrow=classicThin;endFill=1;endSize=5;jettySize=auto;orthogonalLoop=1;strokeWidth=1;fontFamily=Verdana;fontSize=8" parent="77e6c97f196da883-5" source="77e6c97f196da883-19" target="77e6c97f196da883-20" edge="1">
          <mxGeometry relative="1" as="geometry" />
        </mxCell>
        <mxCell id="77e6c97f196da883-6" value="Lane 5" style="swimlane;html=1;startSize=20;" parent="77e6c97f196da883-1" vertex="1">
          <mxGeometry x="640" y="20" width="160" height="730" as="geometry" />
        </mxCell>
        <mxCell id="77e6c97f196da883-18" value="" style="rounded=1;whiteSpace=wrap;html=1;shadow=0;labelBackgroundColor=none;strokeWidth=1;fontFamily=Verdana;fontSize=8;align=center;" parent="77e6c97f196da883-6" vertex="1">
          <mxGeometry x="30" y="400" width="100" height="60" as="geometry" />
        </mxCell>
        <mxCell id="77e6c97f196da883-21" value="" style="rounded=1;whiteSpace=wrap;html=1;shadow=0;labelBackgroundColor=none;strokeWidth=1;fontFamily=Verdana;fontSize=8;align=center;" parent="77e6c97f196da883-6" vertex="1">
          <mxGeometry x="30" y="480" width="100" height="60" as="geometry" />
        </mxCell>
        <mxCell id="77e6c97f196da883-22" value="" style="rounded=1;whiteSpace=wrap;html=1;shadow=0;labelBackgroundColor=none;strokeWidth=1;fontFamily=Verdana;fontSize=8;align=center;" parent="77e6c97f196da883-6" vertex="1">
          <mxGeometry x="30" y="560" width="100" height="60" as="geometry" />
        </mxCell>
        <mxCell id="77e6c97f196da883-23" value="" style="rounded=1;whiteSpace=wrap;html=1;shadow=0;labelBackgroundColor=none;strokeWidth=1;fontFamily=Verdana;fontSize=8;align=center;" parent="77e6c97f196da883-6" vertex="1">
          <mxGeometry x="30" y="640" width="100" height="60" as="geometry" />
        </mxCell>
        <mxCell id="77e6c97f196da883-37" style="edgeStyle=orthogonalEdgeStyle;rounded=1;html=1;labelBackgroundColor=none;startArrow=none;startFill=0;startSize=5;endArrow=classicThin;endFill=1;endSize=5;jettySize=auto;orthogonalLoop=1;strokeWidth=1;fontFamily=Verdana;fontSize=8" parent="77e6c97f196da883-6" source="77e6c97f196da883-18" target="77e6c97f196da883-21" edge="1">
          <mxGeometry relative="1" as="geometry" />
        </mxCell>
        <mxCell id="77e6c97f196da883-38" style="edgeStyle=orthogonalEdgeStyle;rounded=1;html=1;labelBackgroundColor=none;startArrow=none;startFill=0;startSize=5;endArrow=classicThin;endFill=1;endSize=5;jettySize=auto;orthogonalLoop=1;strokeWidth=1;fontFamily=Verdana;fontSize=8" parent="77e6c97f196da883-6" source="77e6c97f196da883-21" target="77e6c97f196da883-22" edge="1">
          <mxGeometry relative="1" as="geometry" />
        </mxCell>
        <mxCell id="77e6c97f196da883-7" value="Lane 6" style="swimlane;html=1;startSize=20;" parent="77e6c97f196da883-1" vertex="1">
          <mxGeometry x="800" y="20" width="160" height="730" as="geometry" />
        </mxCell>
        <mxCell id="77e6c97f196da883-24" value="" style="rounded=1;whiteSpace=wrap;html=1;shadow=0;labelBackgroundColor=none;strokeWidth=1;fontFamily=Verdana;fontSize=8;align=center;" parent="77e6c97f196da883-7" vertex="1">
          <mxGeometry x="30" y="640" width="100" height="60" as="geometry" />
        </mxCell>
        <mxCell id="TtepNEDzew5KfKsV2uqK-9" style="edgeStyle=orthogonalEdgeStyle;rounded=0;orthogonalLoop=1;jettySize=auto;html=1;exitX=0.5;exitY=1;exitDx=0;exitDy=0;entryX=0.5;entryY=0;entryDx=0;entryDy=0;" edge="1" parent="1" source="TtepNEDzew5KfKsV2uqK-2" target="TtepNEDzew5KfKsV2uqK-3">
          <mxGeometry relative="1" as="geometry" />
        </mxCell>
        <mxCell id="TtepNEDzew5KfKsV2uqK-2" value="&lt;b&gt;OnData()&lt;/b&gt;" style="rounded=1;whiteSpace=wrap;html=1;fillColor=#ffe6cc;strokeColor=#d79b00;" vertex="1" parent="1">
          <mxGeometry x="515" y="1293" width="180" height="60" as="geometry" />
        </mxCell>
        <mxCell id="TtepNEDzew5KfKsV2uqK-10" style="edgeStyle=orthogonalEdgeStyle;rounded=0;orthogonalLoop=1;jettySize=auto;html=1;exitX=0.5;exitY=1;exitDx=0;exitDy=0;entryX=0.5;entryY=0;entryDx=0;entryDy=0;" edge="1" parent="1" source="TtepNEDzew5KfKsV2uqK-3" target="TtepNEDzew5KfKsV2uqK-4">
          <mxGeometry relative="1" as="geometry" />
        </mxCell>
        <mxCell id="TtepNEDzew5KfKsV2uqK-14" style="edgeStyle=orthogonalEdgeStyle;rounded=0;orthogonalLoop=1;jettySize=auto;html=1;exitX=0;exitY=0.5;exitDx=0;exitDy=0;entryX=0.5;entryY=0;entryDx=0;entryDy=0;" edge="1" parent="1" source="TtepNEDzew5KfKsV2uqK-3" target="TtepNEDzew5KfKsV2uqK-13">
          <mxGeometry relative="1" as="geometry" />
        </mxCell>
        <mxCell id="TtepNEDzew5KfKsV2uqK-15" value="&lt;b&gt;Failed&lt;/b&gt;" style="edgeLabel;html=1;align=center;verticalAlign=middle;resizable=0;points=[];" vertex="1" connectable="0" parent="TtepNEDzew5KfKsV2uqK-14">
          <mxGeometry x="0.1064" y="-2" relative="1" as="geometry">
            <mxPoint x="122" y="-93" as="offset" />
          </mxGeometry>
        </mxCell>
        <mxCell id="TtepNEDzew5KfKsV2uqK-3" value="&lt;b&gt;ParseData&lt;/b&gt;" style="rounded=1;whiteSpace=wrap;html=1;fillColor=#f5f5f5;fontColor=#333333;strokeColor=#666666;" vertex="1" parent="1">
          <mxGeometry x="515" y="1383" width="180" height="60" as="geometry" />
        </mxCell>
        <mxCell id="TtepNEDzew5KfKsV2uqK-6" style="edgeStyle=orthogonalEdgeStyle;rounded=0;orthogonalLoop=1;jettySize=auto;html=1;exitX=1;exitY=0.5;exitDx=0;exitDy=0;entryX=1;entryY=0.5;entryDx=0;entryDy=0;" edge="1" parent="1" source="TtepNEDzew5KfKsV2uqK-4" target="TtepNEDzew5KfKsV2uqK-7">
          <mxGeometry relative="1" as="geometry">
            <mxPoint x="775.5" y="1333" as="targetPoint" />
            <Array as="points">
              <mxPoint x="755" y="1503" />
              <mxPoint x="755" y="1233" />
            </Array>
          </mxGeometry>
        </mxCell>
        <mxCell id="TtepNEDzew5KfKsV2uqK-43" value="&lt;b&gt;No&lt;/b&gt;" style="edgeLabel;html=1;align=center;verticalAlign=middle;resizable=0;points=[];" vertex="1" connectable="0" parent="TtepNEDzew5KfKsV2uqK-6">
          <mxGeometry x="-0.063" y="2" relative="1" as="geometry">
            <mxPoint as="offset" />
          </mxGeometry>
        </mxCell>
        <mxCell id="TtepNEDzew5KfKsV2uqK-16" style="edgeStyle=orthogonalEdgeStyle;rounded=0;orthogonalLoop=1;jettySize=auto;html=1;exitX=0.5;exitY=1;exitDx=0;exitDy=0;entryX=0.5;entryY=0;entryDx=0;entryDy=0;" edge="1" parent="1" source="TtepNEDzew5KfKsV2uqK-4" target="TtepNEDzew5KfKsV2uqK-11">
          <mxGeometry relative="1" as="geometry" />
        </mxCell>
        <mxCell id="TtepNEDzew5KfKsV2uqK-4" value="&lt;b&gt;completed request？&lt;/b&gt;" style="rhombus;whiteSpace=wrap;html=1;fillColor=#dae8fc;strokeColor=#6c8ebf;" vertex="1" parent="1">
          <mxGeometry x="522.5" y="1463" width="165" height="80" as="geometry" />
        </mxCell>
        <mxCell id="TtepNEDzew5KfKsV2uqK-8" style="edgeStyle=orthogonalEdgeStyle;rounded=0;orthogonalLoop=1;jettySize=auto;html=1;exitX=0.5;exitY=1;exitDx=0;exitDy=0;entryX=0.5;entryY=0;entryDx=0;entryDy=0;" edge="1" parent="1" source="TtepNEDzew5KfKsV2uqK-7" target="TtepNEDzew5KfKsV2uqK-2">
          <mxGeometry relative="1" as="geometry" />
        </mxCell>
        <mxCell id="TtepNEDzew5KfKsV2uqK-7" value="&lt;b&gt;Wait Downstream Data&lt;/b&gt;" style="rounded=1;whiteSpace=wrap;html=1;fillColor=#f5f5f5;fontColor=#333333;strokeColor=#666666;" vertex="1" parent="1">
          <mxGeometry x="515" y="1203" width="180" height="60" as="geometry" />
        </mxCell>
        <mxCell id="TtepNEDzew5KfKsV2uqK-20" style="edgeStyle=orthogonalEdgeStyle;rounded=0;orthogonalLoop=1;jettySize=auto;html=1;exitX=0;exitY=0.5;exitDx=0;exitDy=0;entryX=0.5;entryY=0;entryDx=0;entryDy=0;" edge="1" parent="1" source="TtepNEDzew5KfKsV2uqK-11" target="TtepNEDzew5KfKsV2uqK-13">
          <mxGeometry relative="1" as="geometry">
            <mxPoint x="315" y="1723" as="targetPoint" />
          </mxGeometry>
        </mxCell>
        <mxCell id="TtepNEDzew5KfKsV2uqK-21" value="&lt;b&gt;Failed&lt;/b&gt;" style="edgeLabel;html=1;align=center;verticalAlign=middle;resizable=0;points=[];" vertex="1" connectable="0" parent="TtepNEDzew5KfKsV2uqK-20">
          <mxGeometry x="-0.1926" y="-1" relative="1" as="geometry">
            <mxPoint x="25" y="1" as="offset" />
          </mxGeometry>
        </mxCell>
        <mxCell id="TtepNEDzew5KfKsV2uqK-23" style="edgeStyle=orthogonalEdgeStyle;rounded=0;orthogonalLoop=1;jettySize=auto;html=1;exitX=0.5;exitY=1;exitDx=0;exitDy=0;entryX=0.5;entryY=0;entryDx=0;entryDy=0;" edge="1" parent="1" source="TtepNEDzew5KfKsV2uqK-11" target="TtepNEDzew5KfKsV2uqK-22">
          <mxGeometry relative="1" as="geometry" />
        </mxCell>
        <mxCell id="TtepNEDzew5KfKsV2uqK-11" value="&lt;b&gt;TraitCondition&lt;/b&gt;" style="rounded=1;whiteSpace=wrap;html=1;fillColor=#f5f5f5;fontColor=#333333;strokeColor=#666666;" vertex="1" parent="1">
          <mxGeometry x="515" y="1653" width="180" height="60" as="geometry" />
        </mxCell>
        <mxCell id="TtepNEDzew5KfKsV2uqK-13" value="&lt;b&gt;terminate&lt;/b&gt;" style="rounded=1;whiteSpace=wrap;html=1;fillColor=#f8cecc;strokeColor=#b85450;" vertex="1" parent="1">
          <mxGeometry x="225" y="1743" width="180" height="60" as="geometry" />
        </mxCell>
        <mxCell id="TtepNEDzew5KfKsV2uqK-24" style="edgeStyle=orthogonalEdgeStyle;rounded=0;orthogonalLoop=1;jettySize=auto;html=1;exitX=0;exitY=0.5;exitDx=0;exitDy=0;entryX=1;entryY=0.5;entryDx=0;entryDy=0;" edge="1" parent="1" source="TtepNEDzew5KfKsV2uqK-22" target="TtepNEDzew5KfKsV2uqK-13">
          <mxGeometry relative="1" as="geometry" />
        </mxCell>
        <mxCell id="TtepNEDzew5KfKsV2uqK-27" style="edgeStyle=orthogonalEdgeStyle;rounded=0;orthogonalLoop=1;jettySize=auto;html=1;exitX=0.5;exitY=1;exitDx=0;exitDy=0;entryX=0.5;entryY=0;entryDx=0;entryDy=0;" edge="1" parent="1" source="TtepNEDzew5KfKsV2uqK-22" target="TtepNEDzew5KfKsV2uqK-26">
          <mxGeometry relative="1" as="geometry" />
        </mxCell>
        <mxCell id="TtepNEDzew5KfKsV2uqK-22" value="&lt;b&gt;discovery from cp&lt;/b&gt;" style="rounded=1;whiteSpace=wrap;html=1;fillColor=#f5f5f5;fontColor=#333333;strokeColor=#666666;" vertex="1" parent="1">
          <mxGeometry x="515" y="1743" width="180" height="60" as="geometry" />
        </mxCell>
        <mxCell id="TtepNEDzew5KfKsV2uqK-25" value="&lt;b&gt;Failed&lt;/b&gt;" style="edgeLabel;html=1;align=center;verticalAlign=middle;resizable=0;points=[];" vertex="1" connectable="0" parent="1">
          <mxGeometry x="435" y="1773" as="geometry" />
        </mxCell>
        <mxCell id="TtepNEDzew5KfKsV2uqK-28" style="edgeStyle=orthogonalEdgeStyle;rounded=0;orthogonalLoop=1;jettySize=auto;html=1;exitX=0;exitY=0.5;exitDx=0;exitDy=0;entryX=0.5;entryY=1;entryDx=0;entryDy=0;" edge="1" parent="1" source="TtepNEDzew5KfKsV2uqK-26" target="TtepNEDzew5KfKsV2uqK-13">
          <mxGeometry relative="1" as="geometry" />
        </mxCell>
        <mxCell id="TtepNEDzew5KfKsV2uqK-29" value="&lt;b&gt;Failed&lt;/b&gt;" style="edgeLabel;html=1;align=center;verticalAlign=middle;resizable=0;points=[];" vertex="1" connectable="0" parent="TtepNEDzew5KfKsV2uqK-28">
          <mxGeometry x="-0.2385" y="-3" relative="1" as="geometry">
            <mxPoint x="19" y="3" as="offset" />
          </mxGeometry>
        </mxCell>
        <mxCell id="TtepNEDzew5KfKsV2uqK-31" style="edgeStyle=orthogonalEdgeStyle;rounded=0;orthogonalLoop=1;jettySize=auto;html=1;exitX=0.5;exitY=1;exitDx=0;exitDy=0;entryX=0.5;entryY=0;entryDx=0;entryDy=0;" edge="1" parent="1" source="TtepNEDzew5KfKsV2uqK-26" target="TtepNEDzew5KfKsV2uqK-30">
          <mxGeometry relative="1" as="geometry" />
        </mxCell>
        <mxCell id="TtepNEDzew5KfKsV2uqK-26" value="&lt;b&gt;connectUpstream&lt;/b&gt;" style="rounded=1;whiteSpace=wrap;html=1;fillColor=#f5f5f5;fontColor=#333333;strokeColor=#666666;" vertex="1" parent="1">
          <mxGeometry x="515" y="1833" width="180" height="60" as="geometry" />
        </mxCell>
        <mxCell id="TtepNEDzew5KfKsV2uqK-32" style="edgeStyle=orthogonalEdgeStyle;rounded=0;orthogonalLoop=1;jettySize=auto;html=1;exitX=0;exitY=0.5;exitDx=0;exitDy=0;" edge="1" parent="1" source="TtepNEDzew5KfKsV2uqK-30" target="TtepNEDzew5KfKsV2uqK-13">
          <mxGeometry relative="1" as="geometry" />
        </mxCell>
        <mxCell id="TtepNEDzew5KfKsV2uqK-38" style="edgeStyle=orthogonalEdgeStyle;rounded=0;orthogonalLoop=1;jettySize=auto;html=1;exitX=0.5;exitY=1;exitDx=0;exitDy=0;entryX=0.5;entryY=0;entryDx=0;entryDy=0;" edge="1" parent="1" source="TtepNEDzew5KfKsV2uqK-30" target="TtepNEDzew5KfKsV2uqK-34">
          <mxGeometry relative="1" as="geometry" />
        </mxCell>
        <mxCell id="TtepNEDzew5KfKsV2uqK-30" value="&lt;b&gt;Auth with upstream(server)&lt;/b&gt;" style="rounded=1;whiteSpace=wrap;html=1;fillColor=#f5f5f5;fontColor=#333333;strokeColor=#666666;" vertex="1" parent="1">
          <mxGeometry x="515" y="1923" width="180" height="60" as="geometry" />
        </mxCell>
        <mxCell id="TtepNEDzew5KfKsV2uqK-33" value="&lt;b&gt;Failed&lt;/b&gt;" style="edgeLabel;html=1;align=center;verticalAlign=middle;resizable=0;points=[];" vertex="1" connectable="0" parent="1">
          <mxGeometry x="435" y="1953" as="geometry" />
        </mxCell>
        <mxCell id="TtepNEDzew5KfKsV2uqK-36" style="edgeStyle=orthogonalEdgeStyle;rounded=0;orthogonalLoop=1;jettySize=auto;html=1;exitX=0;exitY=0.5;exitDx=0;exitDy=0;entryX=0.5;entryY=1;entryDx=0;entryDy=0;" edge="1" parent="1" source="TtepNEDzew5KfKsV2uqK-34" target="TtepNEDzew5KfKsV2uqK-13">
          <mxGeometry relative="1" as="geometry">
            <mxPoint x="315" y="1833" as="targetPoint" />
          </mxGeometry>
        </mxCell>
        <mxCell id="TtepNEDzew5KfKsV2uqK-34" value="&lt;b&gt;NormalDataTransfer&lt;/b&gt;" style="rounded=1;whiteSpace=wrap;html=1;fillColor=#e1d5e7;strokeColor=#9673a6;" vertex="1" parent="1">
          <mxGeometry x="515" y="2013" width="180" height="60" as="geometry" />
        </mxCell>
        <mxCell id="TtepNEDzew5KfKsV2uqK-37" value="&lt;b&gt;Failed&lt;/b&gt;" style="edgeLabel;html=1;align=center;verticalAlign=middle;resizable=0;points=[];" vertex="1" connectable="0" parent="1">
          <mxGeometry x="435" y="2043" as="geometry" />
        </mxCell>
        <mxCell id="TtepNEDzew5KfKsV2uqK-40" style="edgeStyle=orthogonalEdgeStyle;rounded=0;orthogonalLoop=1;jettySize=auto;html=1;exitX=1;exitY=0.5;exitDx=0;exitDy=0;entryX=0;entryY=0.5;entryDx=0;entryDy=0;" edge="1" parent="1" source="TtepNEDzew5KfKsV2uqK-42" target="TtepNEDzew5KfKsV2uqK-2">
          <mxGeometry relative="1" as="geometry">
            <mxPoint x="325" y="1353" as="sourcePoint" />
            <Array as="points" />
          </mxGeometry>
        </mxCell>
        <mxCell id="TtepNEDzew5KfKsV2uqK-42" value="&lt;b&gt;Filter Entrence&lt;/b&gt;" style="triangle;whiteSpace=wrap;html=1;fillColor=#d5e8d4;strokeColor=#82b366;" vertex="1" parent="1">
          <mxGeometry x="265" y="1283" width="100" height="80" as="geometry" />
        </mxCell>
        <mxCell id="TtepNEDzew5KfKsV2uqK-46" style="edgeStyle=orthogonalEdgeStyle;rounded=0;orthogonalLoop=1;jettySize=auto;html=1;exitX=0;exitY=0.5;exitDx=0;exitDy=0;entryX=0.5;entryY=0;entryDx=0;entryDy=0;" edge="1" parent="1" source="TtepNEDzew5KfKsV2uqK-44" target="TtepNEDzew5KfKsV2uqK-13">
          <mxGeometry relative="1" as="geometry" />
        </mxCell>
        <mxCell id="TtepNEDzew5KfKsV2uqK-44" value="&lt;b&gt;Auth with downstream(client)&lt;/b&gt;" style="rounded=1;whiteSpace=wrap;html=1;dashed=1;fillColor=#f9f7ed;strokeColor=#36393d;" vertex="1" parent="1">
          <mxGeometry x="515" y="1563" width="180" height="60" as="geometry" />
        </mxCell>
        <mxCell id="TtepNEDzew5KfKsV2uqK-47" value="&lt;b&gt;Failed&lt;/b&gt;" style="edgeLabel;html=1;align=center;verticalAlign=middle;resizable=0;points=[];" vertex="1" connectable="0" parent="1">
          <mxGeometry x="435" y="1593.0011764705885" as="geometry" />
        </mxCell>
        <mxCell id="TtepNEDzew5KfKsV2uqK-52" value="&lt;b&gt;&lt;font style=&quot;font-size: 16px;&quot;&gt;Filter&lt;/font&gt;&lt;/b&gt;" style="text;html=1;strokeColor=none;fillColor=none;align=center;verticalAlign=middle;whiteSpace=wrap;rounded=0;dashed=1;" vertex="1" parent="1">
          <mxGeometry x="2307.25" y="1256" width="141" height="30" as="geometry" />
        </mxCell>
        <mxCell id="TtepNEDzew5KfKsV2uqK-53" value="&lt;b&gt;&lt;font style=&quot;font-size: 16px;&quot;&gt;DataProcessor&lt;/font&gt;&lt;/b&gt;" style="text;html=1;strokeColor=none;fillColor=none;align=center;verticalAlign=middle;whiteSpace=wrap;rounded=0;dashed=1;" vertex="1" parent="1">
          <mxGeometry x="2643" y="1257" width="141" height="30" as="geometry" />
        </mxCell>
        <mxCell id="TtepNEDzew5KfKsV2uqK-56" style="rounded=0;orthogonalLoop=1;jettySize=auto;html=1;exitX=1;exitY=0.5;exitDx=0;exitDy=0;entryX=0.5;entryY=0;entryDx=0;entryDy=0;fontSize=16;edgeStyle=orthogonalEdgeStyle;fillColor=#ffcccc;strokeColor=#000000;strokeWidth=2;" edge="1" parent="1" source="TtepNEDzew5KfKsV2uqK-54" target="TtepNEDzew5KfKsV2uqK-55">
          <mxGeometry relative="1" as="geometry" />
        </mxCell>
        <mxCell id="TtepNEDzew5KfKsV2uqK-54" value="onData(data, end_stream)" style="rounded=1;whiteSpace=wrap;html=1;fontSize=16;fillColor=#eeeeee;strokeColor=#36393d;" vertex="1" parent="1">
          <mxGeometry x="2287.5" y="1326" width="198" height="60" as="geometry" />
        </mxCell>
        <mxCell id="TtepNEDzew5KfKsV2uqK-58" style="edgeStyle=orthogonalEdgeStyle;rounded=0;orthogonalLoop=1;jettySize=auto;html=1;exitX=0;exitY=0.5;exitDx=0;exitDy=0;entryX=1;entryY=0.5;entryDx=0;entryDy=0;fontSize=16;strokeColor=#000000;strokeWidth=2;" edge="1" parent="1" source="TtepNEDzew5KfKsV2uqK-55" target="TtepNEDzew5KfKsV2uqK-57">
          <mxGeometry relative="1" as="geometry" />
        </mxCell>
        <mxCell id="TtepNEDzew5KfKsV2uqK-55" value="ProcessData(data)" style="rounded=1;whiteSpace=wrap;html=1;fontSize=16;fillColor=#f9f7ed;strokeColor=#36393d;" vertex="1" parent="1">
          <mxGeometry x="2632.5" y="1403" width="198" height="60" as="geometry" />
        </mxCell>
        <mxCell id="TtepNEDzew5KfKsV2uqK-61" style="edgeStyle=orthogonalEdgeStyle;rounded=0;orthogonalLoop=1;jettySize=auto;html=1;exitX=0.5;exitY=1;exitDx=0;exitDy=0;entryX=0;entryY=0.5;entryDx=0;entryDy=0;fontSize=16;strokeColor=#0000FF;strokeWidth=2;" edge="1" parent="1" source="TtepNEDzew5KfKsV2uqK-57" target="TtepNEDzew5KfKsV2uqK-60">
          <mxGeometry relative="1" as="geometry" />
        </mxCell>
        <mxCell id="TtepNEDzew5KfKsV2uqK-62" value="&lt;font color=&quot;#0000cc&quot;&gt;Success&lt;/font&gt;" style="edgeLabel;html=1;align=center;verticalAlign=middle;resizable=0;points=[];fontSize=16;" vertex="1" connectable="0" parent="TtepNEDzew5KfKsV2uqK-61">
          <mxGeometry x="0.0205" y="2" relative="1" as="geometry">
            <mxPoint x="36" as="offset" />
          </mxGeometry>
        </mxCell>
        <mxCell id="TtepNEDzew5KfKsV2uqK-64" style="edgeStyle=orthogonalEdgeStyle;rounded=0;orthogonalLoop=1;jettySize=auto;html=1;exitX=0.75;exitY=1;exitDx=0;exitDy=0;entryX=0;entryY=0.5;entryDx=0;entryDy=0;fontSize=16;strokeColor=#CC0066;strokeWidth=2;" edge="1" parent="1" source="TtepNEDzew5KfKsV2uqK-57" target="TtepNEDzew5KfKsV2uqK-63">
          <mxGeometry relative="1" as="geometry" />
        </mxCell>
        <mxCell id="TtepNEDzew5KfKsV2uqK-57" value="Parse(data)" style="rounded=1;whiteSpace=wrap;html=1;fontSize=16;fillColor=#eeeeee;strokeColor=#36393d;" vertex="1" parent="1">
          <mxGeometry x="2287.5" y="1477" width="198" height="60" as="geometry" />
        </mxCell>
        <mxCell id="TtepNEDzew5KfKsV2uqK-60" value="onParseSuccess(result)" style="rounded=1;whiteSpace=wrap;html=1;fontSize=16;fillColor=#f9f7ed;strokeColor=#36393d;" vertex="1" parent="1">
          <mxGeometry x="2632.5" y="1630" width="198" height="60" as="geometry" />
        </mxCell>
        <mxCell id="TtepNEDzew5KfKsV2uqK-68" style="edgeStyle=orthogonalEdgeStyle;rounded=0;orthogonalLoop=1;jettySize=auto;html=1;exitX=1;exitY=0.5;exitDx=0;exitDy=0;entryX=1;entryY=0.5;entryDx=0;entryDy=0;fontSize=16;strokeColor=#CC0066;strokeWidth=2;" edge="1" parent="1" source="TtepNEDzew5KfKsV2uqK-63" target="TtepNEDzew5KfKsV2uqK-67">
          <mxGeometry relative="1" as="geometry">
            <Array as="points">
              <mxPoint x="2870.5" y="1578" />
              <mxPoint x="2870.5" y="2066" />
            </Array>
          </mxGeometry>
        </mxCell>
        <mxCell id="TtepNEDzew5KfKsV2uqK-63" value="onParseFailure(result)" style="rounded=1;whiteSpace=wrap;html=1;fontSize=16;fillColor=#f9f7ed;strokeColor=#36393d;" vertex="1" parent="1">
          <mxGeometry x="2632.5" y="1548" width="198" height="60" as="geometry" />
        </mxCell>
        <mxCell id="TtepNEDzew5KfKsV2uqK-65" value="&lt;font color=&quot;#cc0066&quot;&gt;Failed&lt;/font&gt;" style="edgeLabel;html=1;align=center;verticalAlign=middle;resizable=0;points=[];fontSize=16;" vertex="1" connectable="0" parent="1">
          <mxGeometry x="2495.5" y="1578" as="geometry">
            <mxPoint x="-11" y="-1" as="offset" />
          </mxGeometry>
        </mxCell>
        <mxCell id="TtepNEDzew5KfKsV2uqK-67" value="onProcessDataFailure(reason)" style="rounded=1;whiteSpace=wrap;html=1;fontSize=16;fillColor=#eeeeee;strokeColor=#36393d;" vertex="1" parent="1">
          <mxGeometry x="2264.75" y="2036" width="226" height="60" as="geometry" />
        </mxCell>
        <mxCell id="TtepNEDzew5KfKsV2uqK-78" style="edgeStyle=orthogonalEdgeStyle;rounded=0;orthogonalLoop=1;jettySize=auto;html=1;exitX=0.5;exitY=1;exitDx=0;exitDy=0;entryX=0;entryY=0.5;entryDx=0;entryDy=0;fontSize=16;strokeColor=#0000CC;strokeWidth=2;" edge="1" parent="1" source="TtepNEDzew5KfKsV2uqK-60" target="TtepNEDzew5KfKsV2uqK-77">
          <mxGeometry relative="1" as="geometry">
            <Array as="points">
              <mxPoint x="2731.5" y="1741" />
              <mxPoint x="3033.5" y="1741" />
            </Array>
          </mxGeometry>
        </mxCell>
        <mxCell id="TtepNEDzew5KfKsV2uqK-70" value="onProcessDataSuccess(cluster)" style="rounded=1;whiteSpace=wrap;html=1;fontSize=16;fillColor=#eeeeee;strokeColor=#36393d;" vertex="1" parent="1">
          <mxGeometry x="2273.5" y="2209" width="226" height="60" as="geometry" />
        </mxCell>
        <mxCell id="TtepNEDzew5KfKsV2uqK-76" value="&lt;b&gt;&lt;font style=&quot;font-size: 16px;&quot;&gt;TraitResolver&lt;/font&gt;&lt;/b&gt;" style="text;html=1;strokeColor=none;fillColor=none;align=center;verticalAlign=middle;whiteSpace=wrap;rounded=0;dashed=1;" vertex="1" parent="1">
          <mxGeometry x="3009" y="1256" width="141" height="30" as="geometry" />
        </mxCell>
        <mxCell id="TtepNEDzew5KfKsV2uqK-80" style="edgeStyle=orthogonalEdgeStyle;rounded=0;orthogonalLoop=1;jettySize=auto;html=1;exitX=0.75;exitY=1;exitDx=0;exitDy=0;entryX=1;entryY=0.5;entryDx=0;entryDy=0;fontSize=16;strokeColor=#0000CC;strokeWidth=2;" edge="1" parent="1" source="TtepNEDzew5KfKsV2uqK-77" target="TtepNEDzew5KfKsV2uqK-79">
          <mxGeometry relative="1" as="geometry" />
        </mxCell>
        <mxCell id="TtepNEDzew5KfKsV2uqK-87" value="Success" style="edgeLabel;html=1;align=center;verticalAlign=middle;resizable=0;points=[];fontSize=16;fontColor=#0000CC;" vertex="1" connectable="0" parent="TtepNEDzew5KfKsV2uqK-80">
          <mxGeometry x="0.1324" relative="1" as="geometry">
            <mxPoint as="offset" />
          </mxGeometry>
        </mxCell>
        <mxCell id="TtepNEDzew5KfKsV2uqK-82" style="edgeStyle=orthogonalEdgeStyle;rounded=0;orthogonalLoop=1;jettySize=auto;html=1;exitX=0.5;exitY=1;exitDx=0;exitDy=0;fontSize=16;strokeColor=#CC0066;strokeWidth=2;entryX=1;entryY=0.5;entryDx=0;entryDy=0;" edge="1" parent="1" source="TtepNEDzew5KfKsV2uqK-77" target="TtepNEDzew5KfKsV2uqK-81">
          <mxGeometry relative="1" as="geometry">
            <Array as="points">
              <mxPoint x="3138.5" y="1826" />
            </Array>
          </mxGeometry>
        </mxCell>
        <mxCell id="TtepNEDzew5KfKsV2uqK-88" value="&lt;font color=&quot;#cc0066&quot;&gt;Failed&lt;/font&gt;" style="edgeLabel;html=1;align=center;verticalAlign=middle;resizable=0;points=[];fontSize=16;" vertex="1" connectable="0" parent="TtepNEDzew5KfKsV2uqK-82">
          <mxGeometry x="0.351" y="-3" relative="1" as="geometry">
            <mxPoint x="113" as="offset" />
          </mxGeometry>
        </mxCell>
        <mxCell id="TtepNEDzew5KfKsV2uqK-77" value="resolve()" style="rounded=1;whiteSpace=wrap;html=1;fontSize=16;fillColor=#b0e3e6;strokeColor=#0e8088;" vertex="1" parent="1">
          <mxGeometry x="3039.5" y="1710" width="198" height="60" as="geometry" />
        </mxCell>
        <mxCell id="TtepNEDzew5KfKsV2uqK-96" style="edgeStyle=orthogonalEdgeStyle;rounded=0;orthogonalLoop=1;jettySize=auto;html=1;exitX=0.5;exitY=1;exitDx=0;exitDy=0;strokeColor=#0000CC;strokeWidth=2;fontSize=16;fontColor=#CC0066;entryX=0;entryY=0.75;entryDx=0;entryDy=0;" edge="1" parent="1" source="TtepNEDzew5KfKsV2uqK-79" target="TtepNEDzew5KfKsV2uqK-95">
          <mxGeometry relative="1" as="geometry" />
        </mxCell>
        <mxCell id="TtepNEDzew5KfKsV2uqK-79" value="onResolveSuccess()" style="rounded=1;whiteSpace=wrap;html=1;fontSize=16;fillColor=#f9f7ed;strokeColor=#36393d;" vertex="1" parent="1">
          <mxGeometry x="2632.5" y="1913" width="198" height="60" as="geometry" />
        </mxCell>
        <mxCell id="TtepNEDzew5KfKsV2uqK-85" style="edgeStyle=orthogonalEdgeStyle;rounded=0;orthogonalLoop=1;jettySize=auto;html=1;exitX=0;exitY=0.5;exitDx=0;exitDy=0;entryX=1;entryY=0.5;entryDx=0;entryDy=0;fontSize=16;strokeColor=#CC0066;strokeWidth=2;" edge="1" parent="1" source="TtepNEDzew5KfKsV2uqK-81" target="TtepNEDzew5KfKsV2uqK-67">
          <mxGeometry relative="1" as="geometry">
            <Array as="points">
              <mxPoint x="2568.5" y="1826" />
              <mxPoint x="2568.5" y="2066" />
            </Array>
          </mxGeometry>
        </mxCell>
        <mxCell id="TtepNEDzew5KfKsV2uqK-81" value="onResolveFailure()" style="rounded=1;whiteSpace=wrap;html=1;fontSize=16;fillColor=#f9f7ed;strokeColor=#36393d;" vertex="1" parent="1">
          <mxGeometry x="2632.5" y="1796" width="198" height="60" as="geometry" />
        </mxCell>
        <mxCell id="TtepNEDzew5KfKsV2uqK-93" value="&lt;b&gt;&lt;font style=&quot;font-size: 16px;&quot;&gt;RuntimeXDS&lt;/font&gt;&lt;/b&gt;" style="text;html=1;strokeColor=none;fillColor=none;align=center;verticalAlign=middle;whiteSpace=wrap;rounded=0;dashed=1;" vertex="1" parent="1">
          <mxGeometry x="3375" y="1256" width="141" height="30" as="geometry" />
        </mxCell>
        <mxCell id="TtepNEDzew5KfKsV2uqK-100" style="edgeStyle=orthogonalEdgeStyle;rounded=0;orthogonalLoop=1;jettySize=auto;html=1;exitX=0.5;exitY=1;exitDx=0;exitDy=0;entryX=1;entryY=0.5;entryDx=0;entryDy=0;strokeColor=#0000CC;strokeWidth=2;fontSize=16;fontColor=#CC0066;" edge="1" parent="1" source="TtepNEDzew5KfKsV2uqK-95" target="TtepNEDzew5KfKsV2uqK-98">
          <mxGeometry relative="1" as="geometry" />
        </mxCell>
        <mxCell id="TtepNEDzew5KfKsV2uqK-101" value="&lt;font color=&quot;#0000cc&quot;&gt;Success&lt;/font&gt;" style="edgeLabel;html=1;align=center;verticalAlign=middle;resizable=0;points=[];fontSize=16;fontColor=#CC0066;" vertex="1" connectable="0" parent="TtepNEDzew5KfKsV2uqK-100">
          <mxGeometry x="0.4383" y="2" relative="1" as="geometry">
            <mxPoint as="offset" />
          </mxGeometry>
        </mxCell>
        <mxCell id="TtepNEDzew5KfKsV2uqK-102" style="edgeStyle=orthogonalEdgeStyle;rounded=0;orthogonalLoop=1;jettySize=auto;html=1;exitX=0.25;exitY=1;exitDx=0;exitDy=0;entryX=1;entryY=0.5;entryDx=0;entryDy=0;strokeColor=#CC0066;strokeWidth=2;fontSize=16;fontColor=#0000CC;" edge="1" parent="1" source="TtepNEDzew5KfKsV2uqK-95" target="TtepNEDzew5KfKsV2uqK-97">
          <mxGeometry relative="1" as="geometry" />
        </mxCell>
        <mxCell id="TtepNEDzew5KfKsV2uqK-95" value="update()" style="rounded=1;whiteSpace=wrap;html=1;fontSize=16;fillColor=#bac8d3;strokeColor=#23445d;" vertex="1" parent="1">
          <mxGeometry x="3351.5" y="1973" width="198" height="60" as="geometry" />
        </mxCell>
        <mxCell id="TtepNEDzew5KfKsV2uqK-104" style="edgeStyle=orthogonalEdgeStyle;rounded=0;orthogonalLoop=1;jettySize=auto;html=1;exitX=0;exitY=0.5;exitDx=0;exitDy=0;entryX=1;entryY=0.5;entryDx=0;entryDy=0;strokeColor=#CC0066;strokeWidth=2;fontSize=16;fontColor=#0000CC;" edge="1" parent="1" source="TtepNEDzew5KfKsV2uqK-97" target="TtepNEDzew5KfKsV2uqK-67">
          <mxGeometry relative="1" as="geometry">
            <Array as="points">
              <mxPoint x="2550.5" y="2138" />
              <mxPoint x="2550.5" y="2066" />
            </Array>
          </mxGeometry>
        </mxCell>
        <mxCell id="TtepNEDzew5KfKsV2uqK-97" value="onXDSFailure()" style="rounded=1;whiteSpace=wrap;html=1;fontSize=16;fillColor=#f9f7ed;strokeColor=#36393d;" vertex="1" parent="1">
          <mxGeometry x="2632.5" y="2108" width="198" height="60" as="geometry" />
        </mxCell>
        <mxCell id="TtepNEDzew5KfKsV2uqK-99" style="edgeStyle=orthogonalEdgeStyle;rounded=0;orthogonalLoop=1;jettySize=auto;html=1;exitX=0;exitY=0.5;exitDx=0;exitDy=0;strokeColor=#0000CC;strokeWidth=2;fontSize=16;fontColor=#CC0066;" edge="1" parent="1" source="TtepNEDzew5KfKsV2uqK-98" target="TtepNEDzew5KfKsV2uqK-70">
          <mxGeometry relative="1" as="geometry" />
        </mxCell>
        <mxCell id="TtepNEDzew5KfKsV2uqK-98" value="onXDSSuccess()" style="rounded=1;whiteSpace=wrap;html=1;fontSize=16;fillColor=#f9f7ed;strokeColor=#36393d;" vertex="1" parent="1">
          <mxGeometry x="2632.5" y="2209" width="198" height="60" as="geometry" />
        </mxCell>
        <mxCell id="TtepNEDzew5KfKsV2uqK-103" value="&lt;font color=&quot;#cc0066&quot;&gt;Failed&lt;/font&gt;" style="edgeLabel;html=1;align=center;verticalAlign=middle;resizable=0;points=[];fontSize=16;" vertex="1" connectable="0" parent="1">
          <mxGeometry x="3060.5038321018437" y="2134.9994514129558" as="geometry" />
        </mxCell>
        <mxCell id="TtepNEDzew5KfKsV2uqK-106" value="" style="rounded=1;whiteSpace=wrap;html=1;fontSize=16;fontColor=#0000CC;" vertex="1" parent="1">
          <mxGeometry x="2383" y="2484" width="367" height="79" as="geometry" />
        </mxCell>
      </root>
    </mxGraphModel>
  </diagram>
</mxfile>
